<svg width="250" height="250" viewBox="0 0 250 250" fill="none" xmlns="http://www.w3.org/2000/svg">
<g clip-path="url(#clip0_18_13)">
<path d="M250 191.2H0V191.325H250V191.2Z" fill="#EBEBEB"/>
<path d="M224.95 199.245H197.335V199.37H224.95V199.245Z" fill="#EBEBEB"/>
<path d="M165.25 196.625H160.905V196.75H165.25V196.625Z" fill="#EBEBEB"/>
<path d="M195.83 194.605H186.235V194.73H195.83V194.605Z" fill="#EBEBEB"/>
<path d="M47.825 195.445H26.23V195.57H47.825V195.445Z" fill="#EBEBEB"/>
<path d="M130.525 198.675H107.665V198.8H130.525V198.675Z" fill="#EBEBEB"/>
<path d="M117.07 196.56H70.23V196.685H117.07V196.56Z" fill="#EBEBEB"/>
<path d="M121.36 166.045C121.36 166.42 121.286 166.792 121.142 167.139C120.998 167.485 120.788 167.8 120.522 168.066C120.256 168.331 119.941 168.541 119.594 168.684C119.247 168.827 118.875 168.901 118.5 168.9H21.955C21.1987 168.899 20.4738 168.597 19.9394 168.062C19.4051 167.527 19.105 166.801 19.105 166.045V30.33C19.1116 29.578 19.4146 28.859 19.9482 28.3291C20.4818 27.7992 21.203 27.5013 21.955 27.5H118.5C119.257 27.5 119.983 27.8008 120.519 28.3362C121.054 28.8716 121.355 29.5978 121.355 30.355M121.23 30.355C121.233 29.9946 121.164 29.6372 121.028 29.3034C120.892 28.9696 120.692 28.6659 120.438 28.4099C120.184 28.1539 119.882 27.9505 119.55 27.8115C119.217 27.6725 118.86 27.6006 118.5 27.6H21.955C21.2318 27.6013 20.5387 27.8895 20.0278 28.4014C19.5169 28.9132 19.23 29.6068 19.23 30.33V166.045C19.23 166.768 19.5169 167.462 20.0278 167.974C20.5387 168.485 21.2318 168.774 21.955 168.775H118.5C119.224 168.774 119.917 168.486 120.429 167.974C120.941 167.462 121.229 166.769 121.23 166.045" fill="#EBEBEB"/>
<path d="M226.655 168.9H130.105C129.348 168.899 128.623 168.597 128.088 168.062C127.553 167.527 127.251 166.802 127.25 166.045V30.33C127.258 29.5776 127.562 28.8585 128.096 28.3288C128.631 27.7991 129.353 27.5013 130.105 27.5H226.655C227.406 27.5026 228.126 27.8011 228.659 28.3309C229.191 28.8606 229.493 29.5789 229.5 30.33V166.045C229.5 166.8 229.201 167.525 228.667 168.06C228.134 168.595 227.41 168.897 226.655 168.9ZM130.105 27.6C129.381 27.6013 128.688 27.8894 128.176 28.4011C127.664 28.9127 127.376 29.6064 127.375 30.33V166.045C127.376 166.769 127.664 167.462 128.176 167.974C128.688 168.486 129.381 168.774 130.105 168.775H226.655C227.379 168.774 228.072 168.486 228.584 167.974C229.096 167.462 229.384 166.769 229.385 166.045V30.33C229.384 29.6064 229.096 28.9127 228.584 28.4011C228.072 27.8894 227.379 27.6013 226.655 27.6H130.105Z" fill="#EBEBEB"/>
<path d="M169.755 62.4H136.58V100.865H169.755V62.4Z" fill="#E6E6E6"/>
<path d="M172.07 62.4H137.08V100.865H172.07V62.4Z" fill="#F0F0F0"/>
<path d="M169.14 97.94V65.335H140.015V97.94H169.14Z" fill="white"/>
<path d="M161.66 89H154.1C152.271 88.9974 150.518 88.2694 149.226 86.9758C147.933 85.6823 147.206 83.9287 147.205 82.1V74.545C147.205 74.4708 147.235 74.3995 147.287 74.347C147.34 74.2945 147.411 74.265 147.485 74.265H155.045C156.875 74.2663 158.629 74.9937 159.923 76.2874C161.216 77.5812 161.944 79.3354 161.945 81.165V88.725C161.944 88.7618 161.937 88.7981 161.922 88.8318C161.907 88.8655 161.886 88.896 161.86 88.9216C161.833 88.9471 161.802 88.9672 161.768 88.9806C161.733 88.9941 161.697 89.0007 161.66 89ZM147.765 74.825V82.1C147.768 83.7793 148.436 85.3891 149.623 86.5766C150.811 87.7641 152.421 88.4324 154.1 88.435H161.38V81.165C161.379 79.4853 160.711 77.8747 159.523 76.687C158.335 75.4992 156.725 74.8313 155.045 74.83L147.765 74.825Z" fill="#F0F0F0"/>
<path d="M217.69 76.86H179.705L183.07 48.99H214.325L217.69 76.86Z" fill="#EBEBEB"/>
<path d="M185.995 76.855H185.385V87.53H185.995V76.855Z" fill="#E0E0E0"/>
<path d="M185.69 88.26C186.093 88.26 186.42 87.9332 186.42 87.53C186.42 87.1268 186.093 86.8 185.69 86.8C185.287 86.8 184.96 87.1268 184.96 87.53C184.96 87.9332 185.287 88.26 185.69 88.26Z" fill="#E0E0E0"/>
<path d="M209.355 76.86H202.825L201.44 48.99H207.465L209.355 76.86Z" fill="#F5F5F5"/>
<path d="M200.6 76.855H196.8V191.195H200.6V76.855Z" fill="#F0F0F0"/>
<path d="M204.71 191.2H192.685C192.685 190.521 192.954 189.869 193.434 189.388C193.914 188.907 194.566 188.636 195.245 188.635H202.15C202.829 188.636 203.48 188.907 203.96 189.388C204.44 189.869 204.71 190.521 204.71 191.2Z" fill="#F0F0F0"/>
<path d="M200.6 76.855H196.8V79.175H200.6V76.855Z" fill="#E0E0E0"/>
<path d="M194.29 137.165C193.985 137.165 193.68 137.165 193.37 137.195C191.444 137.329 189.572 137.888 187.887 138.832C186.203 139.776 184.749 141.081 183.629 142.654C182.51 144.227 181.752 146.028 181.412 147.929C181.071 149.829 181.156 151.781 181.66 153.645C183.086 159.209 183.776 164.936 183.71 170.68V187.41C183.709 187.698 183.766 187.984 183.876 188.251C183.986 188.517 184.147 188.76 184.351 188.964C184.555 189.168 184.798 189.329 185.064 189.439C185.331 189.549 185.617 189.606 185.905 189.605H221.905V137.165H194.29Z" fill="#F0F0F0"/>
<path d="M235 150.24C234.999 148.378 234.601 146.537 233.832 144.841C233.063 143.145 231.94 141.632 230.539 140.405C229.138 139.178 227.491 138.264 225.709 137.724C223.926 137.185 222.049 137.032 220.203 137.277C218.356 137.521 216.584 138.157 215.003 139.142C213.422 140.127 212.07 141.438 211.037 142.988C210.004 144.537 209.314 146.29 209.012 148.128C208.711 149.966 208.806 151.847 209.29 153.645C210.716 159.209 211.405 164.936 211.34 170.68V187.41C211.339 187.698 211.396 187.984 211.506 188.251C211.616 188.517 211.777 188.76 211.981 188.964C212.185 189.168 212.428 189.329 212.694 189.439C212.961 189.549 213.247 189.606 213.535 189.605H230.305C230.887 189.605 231.445 189.374 231.857 188.962C232.269 188.55 232.5 187.992 232.5 187.41V169.7C232.443 164.312 233.116 158.942 234.5 153.735C234.825 152.598 234.993 151.422 235 150.24Z" fill="#F5F5F5"/>
<path d="M215.28 157.765H155.65V189.605H215.28V157.765Z" fill="#F0F0F0"/>
<path d="M177.92 116.05H133.92C132.652 116.027 131.393 116.274 130.228 116.775C129.063 117.276 128.018 118.019 127.162 118.955C126.306 119.891 125.659 120.998 125.264 122.203C124.869 123.409 124.734 124.684 124.87 125.945L128.22 164.945H192L188.65 125.945C188.38 123.269 187.14 120.785 185.163 118.961C183.186 117.138 180.609 116.102 177.92 116.05Z" fill="#E0E0E0"/>
<path d="M190.86 116.05H145.91C144.702 116.027 143.504 116.261 142.393 116.737C141.283 117.213 140.288 117.921 139.472 118.812C138.657 119.703 138.041 120.758 137.666 121.906C137.29 123.054 137.164 124.269 137.295 125.47L140.69 164.97H204.5L201.105 125.47C200.85 122.917 199.666 120.546 197.777 118.809C195.887 117.072 193.426 116.09 190.86 116.05Z" fill="#F5F5F5"/>
<path d="M156.63 154.86H214.27C215.139 154.86 215.972 155.205 216.586 155.819C217.2 156.433 217.545 157.266 217.545 158.135V164.55C217.545 165.419 217.2 166.252 216.586 166.866C215.972 167.48 215.139 167.825 214.27 167.825H156.63C156.365 167.825 156.11 167.72 155.923 167.532C155.735 167.345 155.63 167.09 155.63 166.825V155.825C155.639 155.566 155.748 155.32 155.935 155.14C156.122 154.96 156.371 154.86 156.63 154.86Z" fill="#E0E0E0"/>
<path d="M123.525 137.165C123.218 137.165 122.913 137.175 122.61 137.195C120.685 137.331 118.813 137.891 117.13 138.835C115.446 139.78 113.993 141.085 112.873 142.657C111.753 144.229 110.995 146.03 110.653 147.929C110.311 149.829 110.394 151.781 110.895 153.645C112.324 159.209 113.013 164.936 112.945 170.68V187.41C112.945 187.992 113.176 188.55 113.588 188.962C114 189.374 114.558 189.605 115.14 189.605H151.14V137.165H123.525Z" fill="#F0F0F0"/>
<path d="M164.22 150.24C164.214 148.381 163.812 146.544 163.04 144.853C162.269 143.161 161.145 141.654 159.745 140.43C158.345 139.207 156.7 138.297 154.92 137.759C153.14 137.222 151.267 137.07 149.423 137.314C147.58 137.558 145.81 138.192 144.232 139.174C142.653 140.156 141.302 141.464 140.268 143.009C139.234 144.554 138.542 146.302 138.237 148.136C137.932 149.97 138.022 151.848 138.5 153.645C139.929 159.209 140.618 164.936 140.55 170.68V187.41C140.55 187.699 140.607 187.985 140.718 188.251C140.828 188.518 140.99 188.76 141.195 188.964C141.399 189.168 141.642 189.329 141.908 189.439C142.175 189.549 142.461 189.606 142.75 189.605H159.515C159.803 189.606 160.089 189.549 160.356 189.439C160.622 189.329 160.865 189.168 161.069 188.964C161.273 188.76 161.434 188.517 161.544 188.251C161.654 187.984 161.711 187.698 161.71 187.41V169.7C161.663 164.311 162.346 158.941 163.74 153.735C164.056 152.597 164.217 151.421 164.22 150.24Z" fill="#F5F5F5"/>
<path d="M215.27 191.2H124.46C124.037 191.2 123.631 191.032 123.332 190.733C123.033 190.434 122.865 190.028 122.865 189.605H216.865C216.865 190.028 216.697 190.434 216.398 190.733C216.099 191.032 215.693 191.2 215.27 191.2Z" fill="#E0E0E0"/>
<path d="M34.0149 44.915H23.0549V191.2H34.0149V44.915Z" fill="#E6E6E6"/>
<path d="M34.0101 191.2H130.195L130.195 44.915H34.0101L34.0101 191.2Z" fill="#F5F5F5"/>
<path d="M128.4 191.2V47.07L35.81 47.07L35.81 191.2H128.4Z" fill="#E6E6E6"/>
<path d="M43.5599 191.2L43.5599 47.07H35.8099L35.8099 191.2H43.5599Z" fill="#E0E0E0"/>
<path d="M129.375 165.505V163.355H35.81V165.505H129.375Z" fill="#F5F5F5"/>
<path d="M129.375 135.305V133.155H35.81V135.305H129.375Z" fill="#F5F5F5"/>
<path d="M129.375 105.11V102.955H35.81V105.11H129.375Z" fill="#F5F5F5"/>
<path d="M129.375 74.905V72.755H35.81V74.905H129.375Z" fill="#F5F5F5"/>
<path d="M44.06 72.76H57.975V52.245H44.06V72.76Z" fill="#FAFAFA"/>
<path d="M59.455 52.24H56.785C56.3653 52.24 56.025 52.5803 56.025 53V71.995C56.025 72.4148 56.3653 72.755 56.785 72.755H59.455C59.8748 72.755 60.215 72.4148 60.215 71.995V53C60.215 52.5803 59.8748 52.24 59.455 52.24Z" fill="#F0F0F0"/>
<path d="M39.37 72.76H53.285V52.245H39.37V72.76Z" fill="#FAFAFA"/>
<path d="M54.775 52.24H52.105C51.6852 52.24 51.345 52.5803 51.345 53V71.995C51.345 72.4148 51.6852 72.755 52.105 72.755H54.775C55.1947 72.755 55.535 72.4148 55.535 71.995V53C55.535 52.5803 55.1947 52.24 54.775 52.24Z" fill="#E6E6E6"/>
<path d="M35.8099 52.24H47.8199L46.8649 72.76H35.8099V52.24Z" fill="#FAFAFA"/>
<path d="M49.37 52.24H46.565C46.3608 52.2602 46.1719 52.3571 46.0364 52.5112C45.9009 52.6652 45.829 52.8649 45.835 53.07L44.955 71.93C44.9418 72.0278 44.9483 72.1272 44.9744 72.2224C45.0004 72.3176 45.0453 72.4066 45.1064 72.484C45.1675 72.5615 45.2436 72.6258 45.3301 72.6732C45.4167 72.7207 45.5118 72.7502 45.61 72.76H48.415C48.6183 72.7376 48.8058 72.6401 48.9409 72.4865C49.0759 72.333 49.1487 72.1345 49.145 71.93L50.025 53.07C50.039 52.9721 50.0329 52.8724 50.0072 52.777C49.9815 52.6815 49.9366 52.5923 49.8754 52.5146C49.8141 52.437 49.7378 52.3727 49.6509 52.3255C49.564 52.2783 49.4685 52.2492 49.37 52.24Z" fill="#F0F0F0"/>
<path d="M108.41 72.755H118.96V55.435H108.41V72.755Z" fill="#FAFAFA"/>
<path d="M120.055 55.44H118.09C117.756 55.44 117.485 55.7109 117.485 56.045V72.155C117.485 72.4892 117.756 72.76 118.09 72.76H120.055C120.389 72.76 120.66 72.4892 120.66 72.155V56.045C120.66 55.7109 120.389 55.44 120.055 55.44Z" fill="#F0F0F0"/>
<path d="M104.855 72.755H115.405V55.435H104.855V72.755Z" fill="#FAFAFA"/>
<path d="M116.505 55.44H114.54C114.206 55.44 113.935 55.7109 113.935 56.045V72.155C113.935 72.4892 114.206 72.76 114.54 72.76H116.505C116.839 72.76 117.11 72.4892 117.11 72.155V56.045C117.11 55.7109 116.839 55.44 116.505 55.44Z" fill="#E6E6E6"/>
<path d="M102.155 55.44H111.26L110.535 72.76H102.155V55.44Z" fill="#FAFAFA"/>
<path d="M112.435 55.44H110.31C110.02 55.44 109.775 55.755 109.755 56.14L109.09 72.06C109.09 72.445 109.295 72.76 109.59 72.76H111.72C112.01 72.76 112.255 72.445 112.27 72.06L112.94 56.14C112.95 55.755 112.725 55.44 112.435 55.44Z" fill="#F0F0F0"/>
<path d="M94.805 72.755H105.355V55.435H94.805V72.755Z" fill="#FAFAFA"/>
<path d="M106.45 55.44H104.485C104.151 55.44 103.88 55.7109 103.88 56.045V72.155C103.88 72.4892 104.151 72.76 104.485 72.76H106.45C106.784 72.76 107.055 72.4892 107.055 72.155V56.045C107.055 55.7109 106.784 55.44 106.45 55.44Z" fill="#F0F0F0"/>
<path d="M91.2551 72.755H101.805V55.435H91.2551V72.755Z" fill="#FAFAFA"/>
<path d="M102.9 55.44H100.935C100.601 55.44 100.33 55.7109 100.33 56.045V72.155C100.33 72.4892 100.601 72.76 100.935 72.76H102.9C103.234 72.76 103.505 72.4892 103.505 72.155V56.045C103.505 55.7109 103.234 55.44 102.9 55.44Z" fill="#E6E6E6"/>
<path d="M88.5549 55.44H97.6549L96.9349 72.76H88.5549V55.44Z" fill="#FAFAFA"/>
<path d="M98.835 55.44H96.705C96.415 55.44 96.17 55.755 96.155 56.14L95.5 72.06C95.5 72.445 95.71 72.76 96 72.76H98.125C98.415 72.76 98.66 72.445 98.68 72.06L99.345 56.14C99.345 55.755 99.125 55.44 98.835 55.44Z" fill="#F0F0F0"/>
<path d="M74.93 72.76H82.285V54.145H74.93V72.76Z" fill="#FAFAFA"/>
<path d="M82.95 54.14H81.785C81.4951 54.14 81.26 54.3751 81.26 54.665V72.23C81.26 72.52 81.4951 72.755 81.785 72.755H82.95C83.24 72.755 83.475 72.52 83.475 72.23V54.665C83.475 54.3751 83.24 54.14 82.95 54.14Z" fill="#F0F0F0"/>
<path d="M68.805 72.76H76.91V52.245H68.805V72.76Z" fill="#FAFAFA"/>
<path d="M77.64 52.24H76.36C76.0397 52.24 75.78 52.4997 75.78 52.82V72.175C75.78 72.4953 76.0397 72.755 76.36 72.755H77.64C77.9604 72.755 78.22 72.4953 78.22 72.175V52.82C78.22 52.4997 77.9604 52.24 77.64 52.24Z" fill="#F5F5F5"/>
<path d="M66.73 52.24H73.725L73.17 72.76H66.73V52.24Z" fill="#FAFAFA"/>
<path d="M74.63 52.24H73C72.78 52.24 72.585 52.61 72.575 53.07L72.075 71.93C72.075 72.385 72.23 72.76 72.455 72.76H74.09C74.31 72.76 74.5 72.385 74.515 71.93L75.015 53.07C75 52.61 74.85 52.24 74.63 52.24Z" fill="#F0F0F0"/>
<path d="M81.105 102.96H95.02V82.445H81.105V102.96Z" fill="#FAFAFA"/>
<path d="M96.505 82.44H93.835C93.4152 82.44 93.075 82.7803 93.075 83.2V102.195C93.075 102.615 93.4152 102.955 93.835 102.955H96.505C96.9247 102.955 97.265 102.615 97.265 102.195V83.2C97.265 82.7803 96.9247 82.44 96.505 82.44Z" fill="#F0F0F0"/>
<path d="M76.425 102.96H90.34V82.445H76.425V102.96Z" fill="#FAFAFA"/>
<path d="M91.82 82.44H89.15C88.7303 82.44 88.39 82.7803 88.39 83.2V102.195C88.39 102.615 88.7303 102.955 89.15 102.955H91.82C92.2398 102.955 92.58 102.615 92.58 102.195V83.2C92.58 82.7803 92.2398 82.44 91.82 82.44Z" fill="#E6E6E6"/>
<path d="M72.86 82.44H84.865L83.91 102.96H72.86V82.44Z" fill="#FAFAFA"/>
<path d="M86.42 82.44H83.615C83.4108 82.4602 83.2219 82.5571 83.0864 82.7111C82.9509 82.8652 82.8789 83.0649 82.885 83.27L82 102.13C81.986 102.228 81.9921 102.328 82.0178 102.423C82.0435 102.519 82.0884 102.608 82.1496 102.685C82.2109 102.763 82.2872 102.827 82.3741 102.875C82.461 102.922 82.5566 102.951 82.655 102.96H85.46C85.6633 102.938 85.8508 102.84 85.9859 102.686C86.1209 102.533 86.1937 102.334 86.19 102.13L87.065 83.27C87.0797 83.1728 87.0745 83.0736 87.0497 82.9784C87.0249 82.8833 86.981 82.7942 86.9206 82.7166C86.8603 82.6389 86.7848 82.5744 86.6987 82.5268C86.6127 82.4793 86.5178 82.4497 86.42 82.44Z" fill="#F0F0F0"/>
<path d="M102.435 102.955H110.96V85.635H102.435V102.955Z" fill="#FAFAFA"/>
<path d="M111.79 85.64H110.315C110.014 85.64 109.77 85.884 109.77 86.185V102.415C109.77 102.716 110.014 102.96 110.315 102.96H111.79C112.091 102.96 112.335 102.716 112.335 102.415V86.185C112.335 85.884 112.091 85.64 111.79 85.64Z" fill="#F0F0F0"/>
<path d="M99.565 102.955H108.09V85.635H99.565V102.955Z" fill="#FAFAFA"/>
<path d="M108.92 85.64H107.445C107.144 85.64 106.9 85.884 106.9 86.185V102.415C106.9 102.716 107.144 102.96 107.445 102.96H108.92C109.221 102.96 109.465 102.716 109.465 102.415V86.185C109.465 85.884 109.221 85.64 108.92 85.64Z" fill="#E6E6E6"/>
<path d="M97.38 85.64H104.74L104.155 102.96H97.38V85.64Z" fill="#FAFAFA"/>
<path d="M105.69 85.64H103.97C103.735 85.64 103.535 85.955 103.525 86.34L103 102.26C103 102.645 103.165 102.96 103.4 102.96H105.12C105.355 102.96 105.555 102.645 105.565 102.26L106.105 86.34C106.105 85.955 105.925 85.64 105.69 85.64Z" fill="#F0F0F0"/>
<path d="M116.66 102.96H123.72V88.615H116.66V102.96Z" fill="#FAFAFA"/>
<path d="M124.405 88.61H123.18C122.931 88.61 122.73 88.8115 122.73 89.06V102.505C122.73 102.754 122.931 102.955 123.18 102.955H124.405C124.654 102.955 124.855 102.754 124.855 102.505V89.06C124.855 88.8115 124.654 88.61 124.405 88.61Z" fill="#F0F0F0"/>
<path d="M114.28 102.96H121.34V88.615H114.28V102.96Z" fill="#FAFAFA"/>
<path d="M122.03 88.61H120.805C120.556 88.61 120.355 88.8115 120.355 89.06V102.505C120.355 102.754 120.556 102.955 120.805 102.955H122.03C122.279 102.955 122.48 102.754 122.48 102.505V89.06C122.48 88.8115 122.279 88.61 122.03 88.61Z" fill="#E6E6E6"/>
<path d="M112.47 88.61H118.565L118.08 102.96H112.47V88.61Z" fill="#FAFAFA"/>
<path d="M119.355 88.61H117.93C117.735 88.61 117.57 88.87 117.56 89.19L117.115 102.38C117.115 102.7 117.25 102.96 117.445 102.96H118.87C119.06 102.96 119.23 102.7 119.24 102.38L119.685 89.19C119.695 88.87 119.545 88.61 119.355 88.61Z" fill="#F0F0F0"/>
<path d="M58.8 102.955H69.35V85.635H58.8V102.955Z" fill="#FAFAFA"/>
<path d="M70.45 85.64H68.485C68.1509 85.64 67.88 85.9109 67.88 86.245V102.355C67.88 102.689 68.1509 102.96 68.485 102.96H70.45C70.7841 102.96 71.055 102.689 71.055 102.355V86.245C71.055 85.9109 70.7841 85.64 70.45 85.64Z" fill="#F0F0F0"/>
<path d="M55.2549 102.955H65.8049V85.635H55.2549V102.955Z" fill="#FAFAFA"/>
<path d="M66.895 85.64H64.93C64.5958 85.64 64.325 85.9109 64.325 86.245V102.355C64.325 102.689 64.5958 102.96 64.93 102.96H66.895C67.2291 102.96 67.5 102.689 67.5 102.355V86.245C67.5 85.9109 67.2291 85.64 66.895 85.64Z" fill="#E6E6E6"/>
<path d="M52.5499 85.64H61.6549L60.9299 102.96H52.5499V85.64Z" fill="#FAFAFA"/>
<path d="M62.83 85.64H60.705C60.5421 85.667 60.395 85.7536 60.2925 85.8829C60.1899 86.0123 60.1391 86.1753 60.15 86.34L59.5 102.26C59.5 102.645 59.705 102.96 60 102.96H62.125C62.2879 102.933 62.435 102.846 62.5375 102.717C62.6401 102.588 62.6909 102.425 62.68 102.26L63.345 86.34C63.345 85.955 63.12 85.64 62.83 85.64Z" fill="#F0F0F0"/>
<path d="M44.01 102.96H51.365V84.345H44.01V102.96Z" fill="#FAFAFA"/>
<path d="M52.025 84.34H50.86C50.57 84.34 50.335 84.575 50.335 84.865V102.43C50.335 102.72 50.57 102.955 50.86 102.955H52.025C52.3149 102.955 52.55 102.72 52.55 102.43V84.865C52.55 84.575 52.3149 84.34 52.025 84.34Z" fill="#F0F0F0"/>
<path d="M37.885 102.96H45.99V82.445H37.885V102.96Z" fill="#FAFAFA"/>
<path d="M46.715 82.44H45.435C45.1147 82.44 44.855 82.6997 44.855 83.02V102.375C44.855 102.695 45.1147 102.955 45.435 102.955H46.715C47.0353 102.955 47.295 102.695 47.295 102.375V83.02C47.295 82.6997 47.0353 82.44 46.715 82.44Z" fill="#F5F5F5"/>
<path d="M35.8099 82.44H42.8049L42.2499 102.96H35.8099V82.44Z" fill="#FAFAFA"/>
<path d="M43.71 82.44H42.075C41.85 82.44 41.66 82.81 41.65 83.27L41.15 102.13C41.15 102.585 41.31 102.96 41.535 102.96H43.15C43.375 102.96 43.565 102.585 43.575 102.13L44.075 83.27C44.1 82.81 43.93 82.44 43.71 82.44Z" fill="#F0F0F0"/>
<path d="M44.06 133.16H57.975V112.645H44.06V133.16Z" fill="#FAFAFA"/>
<path d="M59.455 112.64H56.785C56.3653 112.64 56.025 112.98 56.025 113.4V132.395C56.025 132.815 56.3653 133.155 56.785 133.155H59.455C59.8748 133.155 60.215 132.815 60.215 132.395V113.4C60.215 112.98 59.8748 112.64 59.455 112.64Z" fill="#F0F0F0"/>
<path d="M39.37 133.16H53.285V112.645H39.37V133.16Z" fill="#FAFAFA"/>
<path d="M54.775 112.64H52.105C51.6852 112.64 51.345 112.98 51.345 113.4V132.395C51.345 132.815 51.6852 133.155 52.105 133.155H54.775C55.1947 133.155 55.535 132.815 55.535 132.395V113.4C55.535 112.98 55.1947 112.64 54.775 112.64Z" fill="#E6E6E6"/>
<path d="M35.8099 112.64H47.8199L46.8649 133.16H35.8099V112.64Z" fill="#FAFAFA"/>
<path d="M49.37 112.64H46.565C46.3608 112.66 46.1719 112.757 46.0364 112.911C45.9009 113.065 45.829 113.265 45.835 113.47L44.955 132.33C44.9418 132.428 44.9483 132.527 44.9744 132.622C45.0004 132.718 45.0453 132.807 45.1064 132.884C45.1675 132.961 45.2436 133.026 45.3301 133.073C45.4167 133.121 45.5118 133.15 45.61 133.16H48.415C48.6183 133.138 48.8058 133.04 48.9409 132.887C49.0759 132.733 49.1487 132.534 49.145 132.33L50.025 113.47C50.039 113.372 50.0329 113.272 50.0072 113.177C49.9815 113.082 49.9366 112.992 49.8754 112.915C49.8141 112.837 49.7378 112.773 49.6509 112.725C49.564 112.678 49.4685 112.649 49.37 112.64Z" fill="#F0F0F0"/>
<path d="M108.41 133.155H118.96V115.835H108.41V133.155Z" fill="#FAFAFA"/>
<path d="M120.055 115.84H118.09C117.756 115.84 117.485 116.111 117.485 116.445V132.555C117.485 132.889 117.756 133.16 118.09 133.16H120.055C120.389 133.16 120.66 132.889 120.66 132.555V116.445C120.66 116.111 120.389 115.84 120.055 115.84Z" fill="#F0F0F0"/>
<path d="M104.855 133.155H115.405V115.835H104.855V133.155Z" fill="#FAFAFA"/>
<path d="M116.505 115.84H114.54C114.206 115.84 113.935 116.111 113.935 116.445V132.555C113.935 132.889 114.206 133.16 114.54 133.16H116.505C116.839 133.16 117.11 132.889 117.11 132.555V116.445C117.11 116.111 116.839 115.84 116.505 115.84Z" fill="#E6E6E6"/>
<path d="M102.155 115.84H111.26L110.535 133.16H102.155V115.84Z" fill="#FAFAFA"/>
<path d="M112.435 115.84H110.31C110.02 115.84 109.775 116.155 109.755 116.54L109.09 132.46C109.09 132.845 109.295 133.16 109.59 133.16H111.72C112.01 133.16 112.255 132.845 112.27 132.46L112.94 116.54C112.95 116.155 112.725 115.84 112.435 115.84Z" fill="#F0F0F0"/>
<path d="M94.805 133.155H105.355V115.835H94.805V133.155Z" fill="#FAFAFA"/>
<path d="M106.45 115.84H104.485C104.151 115.84 103.88 116.111 103.88 116.445V132.555C103.88 132.889 104.151 133.16 104.485 133.16H106.45C106.784 133.16 107.055 132.889 107.055 132.555V116.445C107.055 116.111 106.784 115.84 106.45 115.84Z" fill="#F0F0F0"/>
<path d="M91.2551 133.155H101.805V115.835H91.2551V133.155Z" fill="#FAFAFA"/>
<path d="M102.9 115.84H100.935C100.601 115.84 100.33 116.111 100.33 116.445V132.555C100.33 132.889 100.601 133.16 100.935 133.16H102.9C103.234 133.16 103.505 132.889 103.505 132.555V116.445C103.505 116.111 103.234 115.84 102.9 115.84Z" fill="#E6E6E6"/>
<path d="M88.5549 115.84H97.6549L96.9349 133.16H88.5549V115.84Z" fill="#FAFAFA"/>
<path d="M98.835 115.84H96.705C96.415 115.84 96.17 116.155 96.155 116.54L95.5 132.46C95.5 132.845 95.71 133.16 96 133.16H98.125C98.415 133.16 98.66 132.845 98.68 132.46L99.345 116.54C99.345 116.155 99.125 115.84 98.835 115.84Z" fill="#F0F0F0"/>
<path d="M74.93 133.16H82.285V114.545H74.93V133.16Z" fill="#FAFAFA"/>
<path d="M82.95 114.54H81.785C81.4951 114.54 81.26 114.775 81.26 115.065V132.63C81.26 132.92 81.4951 133.155 81.785 133.155H82.95C83.24 133.155 83.475 132.92 83.475 132.63V115.065C83.475 114.775 83.24 114.54 82.95 114.54Z" fill="#F0F0F0"/>
<path d="M68.805 133.16H76.91V112.645H68.805V133.16Z" fill="#FAFAFA"/>
<path d="M77.64 112.64H76.36C76.0397 112.64 75.78 112.9 75.78 113.22V132.575C75.78 132.895 76.0397 133.155 76.36 133.155H77.64C77.9604 133.155 78.22 132.895 78.22 132.575V113.22C78.22 112.9 77.9604 112.64 77.64 112.64Z" fill="#F5F5F5"/>
<path d="M66.73 112.64H73.725L73.17 133.16H66.73V112.64Z" fill="#FAFAFA"/>
<path d="M74.63 112.64H73C72.78 112.64 72.585 113.01 72.575 113.47L72.075 132.33C72.075 132.785 72.23 133.16 72.455 133.16H74.09C74.31 133.16 74.5 132.785 74.515 132.33L75.015 113.47C75 113 74.85 112.64 74.63 112.64Z" fill="#F0F0F0"/>
<path d="M41.09 191.2H50.005V170.685H41.09V191.2Z" fill="#FAFAFA"/>
<path d="M50.84 170.68H49.365C49.0309 170.68 48.76 170.951 48.76 171.285V190.59C48.76 190.924 49.0309 191.195 49.365 191.195H50.84C51.1741 191.195 51.445 190.924 51.445 190.59V171.285C51.445 170.951 51.1741 170.68 50.84 170.68Z" fill="#F0F0F0"/>
<path d="M38.095 191.2H47.01V170.685H38.095V191.2Z" fill="#FAFAFA"/>
<path d="M47.84 170.68H46.365C46.0309 170.68 45.76 170.951 45.76 171.285V190.59C45.76 190.924 46.0309 191.195 46.365 191.195H47.84C48.1741 191.195 48.445 190.924 48.445 190.59V171.285C48.445 170.951 48.1741 170.68 47.84 170.68Z" fill="#E6E6E6"/>
<path d="M35.8099 170.685H43.4999L42.8899 191.2H35.8099V170.685Z" fill="#FAFAFA"/>
<path d="M44.4999 170.68H42.6999C42.4549 170.68 42.2449 171.055 42.2299 171.51L41.6699 190.37C41.6699 190.83 41.8449 191.2 42.0899 191.2H43.8849C44.1299 191.2 44.3399 190.83 44.3549 190.37L44.9149 171.5C44.9299 171.055 44.7399 170.68 44.4999 170.68Z" fill="#F0F0F0"/>
<path d="M115.68 191.2H124.975V173.88H115.68V191.2Z" fill="#FAFAFA"/>
<path d="M125.905 173.88H124.245C123.93 173.88 123.675 174.135 123.675 174.45V190.63C123.675 190.945 123.93 191.2 124.245 191.2H125.905C126.22 191.2 126.475 190.945 126.475 190.63V174.45C126.475 174.135 126.22 173.88 125.905 173.88Z" fill="#F0F0F0"/>
<path d="M112.55 191.2H121.845V173.88H112.55V191.2Z" fill="#FAFAFA"/>
<path d="M122.775 173.88H121.115C120.8 173.88 120.545 174.135 120.545 174.45V190.63C120.545 190.945 120.8 191.2 121.115 191.2H122.775C123.09 191.2 123.345 190.945 123.345 190.63V174.45C123.345 174.135 123.09 173.88 122.775 173.88Z" fill="#E6E6E6"/>
<path d="M110.17 173.88H118.19L117.55 191.2H110.17V173.88Z" fill="#FAFAFA"/>
<path d="M119.23 173.88H117.355C117.1 173.88 116.855 174.195 116.855 174.58L116.28 190.5C116.28 190.885 116.46 191.2 116.715 191.2H118.59C118.845 191.2 119.065 190.885 119.09 190.5L119.675 174.58C119.68 174.195 119.5 173.88 119.23 173.88Z" fill="#F0F0F0"/>
<path d="M103.69 191.2H112.985V173.88H103.69V191.2Z" fill="#FAFAFA"/>
<path d="M113.915 173.88H112.255C111.94 173.88 111.685 174.135 111.685 174.45V190.63C111.685 190.945 111.94 191.2 112.255 191.2H113.915C114.23 191.2 114.485 190.945 114.485 190.63V174.45C114.485 174.135 114.23 173.88 113.915 173.88Z" fill="#F0F0F0"/>
<path d="M100.56 191.2H109.855V173.88H100.56V191.2Z" fill="#FAFAFA"/>
<path d="M110.785 173.88H109.125C108.81 173.88 108.555 174.135 108.555 174.45V190.63C108.555 190.945 108.81 191.2 109.125 191.2H110.785C111.1 191.2 111.355 190.945 111.355 190.63V174.45C111.355 174.135 111.1 173.88 110.785 173.88Z" fill="#E6E6E6"/>
<path d="M98.1801 173.88H106.2L105.565 191.2H98.1801V173.88Z" fill="#FAFAFA"/>
<path d="M107.24 173.88H105.365C105.11 173.88 104.89 174.195 104.865 174.58L104.29 190.5C104.29 190.885 104.47 191.2 104.725 191.2H106.6C106.855 191.2 107.1 190.885 107.1 190.5L107.685 174.58C107.69 174.195 107.5 173.88 107.24 173.88Z" fill="#F0F0F0"/>
<path d="M94.145 191.2H100.625V172.585H94.145V191.2Z" fill="#FAFAFA"/>
<path d="M100.215 172.585H101.18C101.313 172.585 101.44 172.638 101.534 172.731C101.627 172.825 101.68 172.952 101.68 173.085V190.715C101.68 190.848 101.627 190.975 101.534 191.069C101.44 191.162 101.313 191.215 101.18 191.215H100.215C100.082 191.215 99.9552 191.162 99.8614 191.069C99.7677 190.975 99.715 190.848 99.715 190.715V173.075C99.7176 172.944 99.7714 172.82 99.8649 172.728C99.9584 172.636 100.084 172.585 100.215 172.585Z" fill="#F0F0F0"/>
<path d="M88.75 191.2H95.89V170.685H88.75V191.2Z" fill="#FAFAFA"/>
<path d="M96.495 170.68H95.435C95.134 170.68 94.89 170.924 94.89 171.225V190.65C94.89 190.951 95.134 191.195 95.435 191.195H96.495C96.796 191.195 97.04 190.951 97.04 190.65V171.225C97.04 170.924 96.796 170.68 96.495 170.68Z" fill="#F5F5F5"/>
<path d="M86.92 170.685H93.085L92.595 191.2H86.92V170.685Z" fill="#FAFAFA"/>
<path d="M93.88 170.68H92.44C92.245 170.68 92.075 171.055 92.065 171.51L91.615 190.37C91.615 190.83 91.755 191.2 91.95 191.2H93.39C93.585 191.2 93.755 190.83 93.765 190.37L94.215 171.51C94.225 171.055 94.075 170.68 93.88 170.68Z" fill="#F0F0F0"/>
<path d="M81.105 163.36H95.02V142.845H81.105V163.36Z" fill="#FAFAFA"/>
<path d="M96.505 142.84H93.835C93.4152 142.84 93.075 143.18 93.075 143.6V162.595C93.075 163.015 93.4152 163.355 93.835 163.355H96.505C96.9247 163.355 97.265 163.015 97.265 162.595V143.6C97.265 143.18 96.9247 142.84 96.505 142.84Z" fill="#F0F0F0"/>
<path d="M76.425 163.36H90.34V142.845H76.425V163.36Z" fill="#FAFAFA"/>
<path d="M91.82 142.84H89.15C88.7303 142.84 88.39 143.18 88.39 143.6V162.595C88.39 163.015 88.7303 163.355 89.15 163.355H91.82C92.2398 163.355 92.58 163.015 92.58 162.595V143.6C92.58 143.18 92.2398 142.84 91.82 142.84Z" fill="#E6E6E6"/>
<path d="M72.86 142.84H84.865L83.91 163.36H72.86V142.84Z" fill="#FAFAFA"/>
<path d="M86.42 142.84H83.615C83.4113 142.861 83.2231 142.959 83.0878 143.112C82.9525 143.266 82.8801 143.465 82.885 143.67L82 162.53C81.986 162.628 81.9921 162.728 82.0178 162.823C82.0435 162.919 82.0884 163.008 82.1496 163.085C82.2109 163.163 82.2872 163.227 82.3741 163.275C82.461 163.322 82.5566 163.351 82.655 163.36H85.46C85.6633 163.338 85.8508 163.24 85.9859 163.086C86.1209 162.933 86.1937 162.734 86.19 162.53L87.065 143.67C87.079 143.573 87.0733 143.474 87.0482 143.379C87.0231 143.284 86.9791 143.195 86.9189 143.118C86.8587 143.04 86.7835 142.976 86.6977 142.928C86.612 142.88 86.5176 142.85 86.42 142.84Z" fill="#F0F0F0"/>
<path d="M102.435 163.355H110.96V146.035H102.435V163.355Z" fill="#FAFAFA"/>
<path d="M111.79 146.04H110.315C110.014 146.04 109.77 146.284 109.77 146.585V162.815C109.77 163.116 110.014 163.36 110.315 163.36H111.79C112.091 163.36 112.335 163.116 112.335 162.815V146.585C112.335 146.284 112.091 146.04 111.79 146.04Z" fill="#F0F0F0"/>
<path d="M99.565 163.355H108.09V146.035H99.565V163.355Z" fill="#FAFAFA"/>
<path d="M108.92 146.04H107.445C107.144 146.04 106.9 146.284 106.9 146.585V162.815C106.9 163.116 107.144 163.36 107.445 163.36H108.92C109.221 163.36 109.465 163.116 109.465 162.815V146.585C109.465 146.284 109.221 146.04 108.92 146.04Z" fill="#E6E6E6"/>
<path d="M97.38 146.04H104.74L104.155 163.36H97.38V146.04Z" fill="#FAFAFA"/>
<path d="M105.69 146.04H103.97C103.735 146.04 103.535 146.355 103.525 146.74L103 162.66C103 163.045 103.165 163.36 103.4 163.36H105.12C105.355 163.36 105.555 163.045 105.565 162.66L106.105 146.74C106.105 146.355 105.925 146.04 105.69 146.04Z" fill="#F0F0F0"/>
<path d="M116.66 163.36H123.72V149.015H116.66V163.36Z" fill="#FAFAFA"/>
<path d="M124.405 149.01H123.18C122.931 149.01 122.73 149.211 122.73 149.46V162.905C122.73 163.154 122.931 163.355 123.18 163.355H124.405C124.654 163.355 124.855 163.154 124.855 162.905V149.46C124.855 149.211 124.654 149.01 124.405 149.01Z" fill="#F0F0F0"/>
<path d="M114.28 163.36H121.34V149.015H114.28V163.36Z" fill="#FAFAFA"/>
<path d="M122.03 149.01H120.805C120.556 149.01 120.355 149.211 120.355 149.46V162.905C120.355 163.154 120.556 163.355 120.805 163.355H122.03C122.279 163.355 122.48 163.154 122.48 162.905V149.46C122.48 149.211 122.279 149.01 122.03 149.01Z" fill="#E6E6E6"/>
<path d="M112.47 149.01H118.565L118.08 163.36H112.47V149.01Z" fill="#FAFAFA"/>
<path d="M119.355 149H117.93C117.735 149 117.57 149.26 117.56 149.58L117.115 162.77C117.115 163.09 117.25 163.35 117.445 163.35H118.87C119.06 163.35 119.23 163.09 119.24 162.77L119.685 149.58C119.695 149.27 119.545 149 119.355 149Z" fill="#F0F0F0"/>
<path d="M58.8 163.355H69.35V146.035H58.8V163.355Z" fill="#FAFAFA"/>
<path d="M70.45 146.04H68.485C68.1509 146.04 67.88 146.311 67.88 146.645V162.755C67.88 163.089 68.1509 163.36 68.485 163.36H70.45C70.7841 163.36 71.055 163.089 71.055 162.755V146.645C71.055 146.311 70.7841 146.04 70.45 146.04Z" fill="#F0F0F0"/>
<path d="M55.2549 163.355H65.8049V146.035H55.2549V163.355Z" fill="#FAFAFA"/>
<path d="M66.895 146.04H64.93C64.5958 146.04 64.325 146.311 64.325 146.645V162.755C64.325 163.089 64.5958 163.36 64.93 163.36H66.895C67.2291 163.36 67.5 163.089 67.5 162.755V146.645C67.5 146.311 67.2291 146.04 66.895 146.04Z" fill="#E6E6E6"/>
<path d="M52.5499 146.04H61.6549L60.9299 163.36H52.5499V146.04Z" fill="#FAFAFA"/>
<path d="M62.83 146.04H60.705C60.5421 146.067 60.395 146.154 60.2925 146.283C60.1899 146.412 60.1391 146.575 60.15 146.74L59.5 162.66C59.5 163.045 59.705 163.36 60 163.36H62.125C62.2879 163.333 62.435 163.246 62.5375 163.117C62.6401 162.988 62.6909 162.825 62.68 162.66L63.345 146.74C63.345 146.355 63.12 146.04 62.83 146.04Z" fill="#F0F0F0"/>
<path d="M44.01 163.36H51.365V144.745H44.01V163.36Z" fill="#FAFAFA"/>
<path d="M52.025 144.74H50.86C50.57 144.74 50.335 144.975 50.335 145.265V162.83C50.335 163.12 50.57 163.355 50.86 163.355H52.025C52.3149 163.355 52.55 163.12 52.55 162.83V145.265C52.55 144.975 52.3149 144.74 52.025 144.74Z" fill="#F0F0F0"/>
<path d="M37.885 163.36H45.99V142.845H37.885V163.36Z" fill="#FAFAFA"/>
<path d="M46.715 142.84H45.435C45.1147 142.84 44.855 143.1 44.855 143.42V162.775C44.855 163.095 45.1147 163.355 45.435 163.355H46.715C47.0353 163.355 47.295 163.095 47.295 162.775V143.42C47.295 143.1 47.0353 142.84 46.715 142.84Z" fill="#F5F5F5"/>
<path d="M35.8099 142.84H42.8049L42.2499 163.36H35.8099V142.84Z" fill="#FAFAFA"/>
<path d="M43.71 142.84H42.075C41.85 142.84 41.66 143.215 41.65 143.67L41.15 162.53C41.15 162.985 41.31 163.36 41.535 163.36H43.15C43.375 163.36 43.565 162.985 43.575 162.53L44.075 143.67C44.1 143.215 43.93 142.84 43.71 142.84Z" fill="#F0F0F0"/>
<path d="M77.17 191.2H87.485V169.04H77.17V191.2Z" fill="#FAFAFA"/>
<path d="M88.4699 169.04H86.7249C86.3494 169.04 86.0449 169.344 86.0449 169.72V190.52C86.0449 190.896 86.3494 191.2 86.7249 191.2H88.4699C88.8455 191.2 89.1499 190.896 89.1499 190.52V169.72C89.1499 169.344 88.8455 169.04 88.4699 169.04Z" fill="#F0F0F0"/>
<path d="M73.7 191.2H84.015V169.04H73.7V191.2Z" fill="#FAFAFA"/>
<path d="M84.9951 169.04H83.2501C82.8745 169.04 82.5701 169.344 82.5701 169.72V190.52C82.5701 190.896 82.8745 191.2 83.2501 191.2H84.9951C85.3706 191.2 85.6751 190.896 85.6751 190.52V169.72C85.6751 169.344 85.3706 169.04 84.9951 169.04Z" fill="#E6E6E6"/>
<path d="M71.0549 169.04H79.9549L79.2499 191.2H71.0549V169.04Z" fill="#FAFAFA"/>
<path d="M81.11 169.04H79.03C78.745 169.04 78.5 169.44 78.485 169.935L77.835 190.305C77.835 190.805 78.035 191.2 78.335 191.2H80.415C80.7 191.2 80.915 190.8 80.955 190.305L81.605 169.935C81.61 169.44 81.39 169.04 81.11 169.04Z" fill="#F0F0F0"/>
<path d="M61.79 191.2H70.705V171.91H61.79V191.2Z" fill="#FAFAFA"/>
<path d="M71.555 171.91H70.05C69.7241 171.91 69.46 172.174 69.46 172.5V190.61C69.46 190.936 69.7241 191.2 70.05 191.2H71.555C71.8808 191.2 72.145 190.936 72.145 190.61V172.5C72.145 172.174 71.8808 171.91 71.555 171.91Z" fill="#F0F0F0"/>
<path d="M58.7901 191.2H67.7051V171.91H58.7901V191.2Z" fill="#FAFAFA"/>
<path d="M68.555 171.91H67.05C66.7241 171.91 66.46 172.174 66.46 172.5V190.61C66.46 190.936 66.7241 191.2 67.05 191.2H68.555C68.8808 191.2 69.145 190.936 69.145 190.61V172.5C69.145 172.174 68.8808 171.91 68.555 171.91Z" fill="#E6E6E6"/>
<path d="M56.51 171.91H64.2L63.59 191.2H56.51V171.91Z" fill="#FAFAFA"/>
<path d="M65.195 171.91H63.4C63.155 171.91 62.945 172.26 62.93 172.69L62.37 190.42C62.37 190.85 62.54 191.2 62.785 191.2H64.585C64.83 191.2 65.04 190.85 65.05 190.42L65.615 172.69C65.63 172.26 65.44 171.91 65.195 171.91Z" fill="#F0F0F0"/>
<path d="M125 213.78C178.541 213.78 221.945 211.246 221.945 208.12C221.945 204.994 178.541 202.46 125 202.46C71.4587 202.46 28.0549 204.994 28.0549 208.12C28.0549 211.246 71.4587 213.78 125 213.78Z" fill="#F5F5F5"/>
<path d="M115.065 206.81C115.115 206.964 115.128 207.128 115.101 207.288C115.073 207.448 115.008 207.599 114.909 207.728C114.811 207.857 114.683 207.96 114.536 208.028C114.388 208.097 114.227 208.128 114.065 208.12H44.4149C42.2399 208.12 42.2399 193.955 44.4149 193.955H114.085C114.246 193.947 114.407 193.979 114.554 194.047C114.7 194.115 114.828 194.217 114.927 194.346C115.025 194.474 115.091 194.624 115.118 194.783C115.146 194.943 115.134 195.106 115.085 195.26C114.215 197.96 114.215 204.115 115.065 206.81Z" fill="#3B2877"/>
<path opacity="0.8" d="M114.965 195.61H72.6999C71.0349 195.61 71.0349 206.465 72.6999 206.465H114.965C114.25 203.74 114.25 198.33 114.965 195.61Z" fill="white"/>
<path opacity="0.2" d="M70.5949 206.81C70.6454 206.964 70.6577 207.128 70.6306 207.288C70.6035 207.448 70.5379 207.599 70.4395 207.728C70.3411 207.857 70.2127 207.96 70.0656 208.028C69.9185 208.097 69.7569 208.128 69.5949 208.12H44.4149C42.2399 208.12 42.2399 193.955 44.4149 193.955H69.6149C69.7764 193.947 69.9373 193.979 70.0839 194.047C70.2305 194.115 70.3584 194.217 70.4567 194.346C70.555 194.474 70.6208 194.624 70.6483 194.783C70.6759 194.943 70.6644 195.106 70.6149 195.26C69.7449 197.96 69.7449 204.115 70.5949 206.81Z" fill="black"/>
<path d="M55.1549 193.955H49.3999C47.2249 193.955 47.2249 208.12 49.3999 208.12H55.1549C52.9999 208.12 52.9999 193.955 55.1549 193.955Z" fill="#3B2877"/>
<path d="M59.69 193.955H57.43C55.255 193.955 55.255 208.12 57.43 208.12H59.69C57.5 208.12 57.5 193.955 59.69 193.955Z" fill="#3B2877"/>
<path d="M40.355 192.78C40.115 193.36 40.705 193.955 41.505 193.955H104.145C106.7 193.955 106.7 181.22 104.145 181.22H41.5C40.7 181.22 40.11 181.81 40.35 182.395C41.35 184.82 41.35 190.355 40.355 192.78Z" fill="#263238"/>
<path opacity="0.2" d="M40.355 192.78C40.115 193.36 40.705 193.955 41.505 193.955H72.22C74.775 193.955 74.775 181.22 72.22 181.22H41.5C40.7 181.22 40.11 181.81 40.35 182.395C41.35 184.82 41.35 190.355 40.355 192.78Z" fill="black"/>
<path opacity="0.8" d="M40.465 182.705H70.965C72.92 182.705 72.92 192.465 70.965 192.465H40.465C41.305 190 41.305 185.155 40.465 182.705Z" fill="white"/>
<path opacity="0.2" d="M81.0949 184.06C80.9049 183.495 81.4549 182.945 82.2149 182.945H99.7499C101.61 182.945 101.61 192.225 99.7499 192.225H82.2149C81.4549 192.225 80.9049 191.68 81.0949 191.115C81.695 188.802 81.695 186.373 81.0949 184.06Z" fill="white"/>
<path d="M207.865 187.095C207.92 187.264 207.936 187.444 207.911 187.62C207.886 187.796 207.822 187.964 207.722 188.111C207.622 188.259 207.489 188.381 207.335 188.469C207.18 188.557 207.007 188.609 206.83 188.62H133.23C130.93 188.62 130.93 172.12 133.23 172.12H206.83C207.005 172.132 207.174 172.183 207.327 172.27C207.479 172.357 207.609 172.476 207.709 172.621C207.808 172.765 207.874 172.929 207.901 173.102C207.928 173.276 207.916 173.452 207.865 173.62C206.97 176.795 206.97 183.96 207.865 187.095Z" fill="#3B2877"/>
<path opacity="0.5" d="M207.865 187.095C207.92 187.264 207.936 187.444 207.911 187.62C207.886 187.796 207.822 187.964 207.722 188.111C207.622 188.259 207.489 188.381 207.335 188.469C207.18 188.557 207.007 188.609 206.83 188.62H133.23C130.93 188.62 130.93 172.12 133.23 172.12H206.83C207.005 172.132 207.174 172.183 207.327 172.27C207.479 172.357 207.609 172.476 207.709 172.621C207.808 172.765 207.874 172.929 207.901 173.102C207.928 173.276 207.916 173.452 207.865 173.62C206.97 176.795 206.97 183.96 207.865 187.095Z" fill="white"/>
<path opacity="0.8" d="M207.765 174.06H163.11C161.35 174.06 161.35 186.69 163.11 186.69H207.765C207 183.525 207 177.23 207.765 174.06Z" fill="white"/>
<path opacity="0.6" d="M160.885 187.095C160.94 187.264 160.956 187.444 160.931 187.62C160.906 187.796 160.842 187.964 160.742 188.111C160.642 188.259 160.509 188.381 160.355 188.469C160.2 188.557 160.027 188.609 159.85 188.62H133.23C130.93 188.62 130.93 172.12 133.23 172.12H159.85C160.025 172.132 160.194 172.183 160.347 172.27C160.499 172.357 160.629 172.476 160.729 172.621C160.828 172.765 160.894 172.929 160.921 173.102C160.948 173.276 160.936 173.452 160.885 173.62C160 176.795 160 183.96 160.885 187.095Z" fill="#3B2877"/>
<path opacity="0.5" d="M150.085 173.355C150.137 173.226 150.158 173.086 150.147 172.947C150.135 172.809 150.091 172.674 150.018 172.556C149.945 172.437 149.845 172.337 149.726 172.264C149.608 172.191 149.474 172.147 149.335 172.135H139.185C136.885 172.135 136.885 188.635 139.185 188.635H149.335C149.474 188.622 149.608 188.578 149.727 188.504C149.845 188.43 149.945 188.33 150.018 188.211C150.091 188.092 150.135 187.958 150.146 187.818C150.158 187.679 150.137 187.54 150.085 187.41C149.06 184.345 149.06 176.41 150.085 173.355Z" fill="white"/>
<path d="M202.585 206.305C202.644 206.524 202.65 206.755 202.603 206.977C202.555 207.199 202.456 207.406 202.312 207.582C202.168 207.758 201.985 207.897 201.777 207.988C201.568 208.079 201.342 208.119 201.115 208.105H124.645C121.38 208.105 121.375 188.605 124.645 188.605H201.145C201.372 188.591 201.598 188.631 201.807 188.722C202.015 188.813 202.198 188.952 202.342 189.128C202.486 189.304 202.585 189.511 202.633 189.733C202.68 189.955 202.674 190.186 202.615 190.405C201.31 194.12 201.315 202.595 202.585 206.305Z" fill="#3B2877"/>
<path opacity="0.2" d="M202.585 206.305C202.644 206.524 202.65 206.755 202.603 206.977C202.555 207.199 202.456 207.406 202.312 207.582C202.168 207.758 201.985 207.897 201.777 207.988C201.568 208.079 201.342 208.119 201.115 208.105H124.645C121.38 208.105 121.375 188.605 124.645 188.605H201.145C201.372 188.591 201.598 188.631 201.807 188.722C202.015 188.813 202.198 188.952 202.342 189.128C202.486 189.304 202.585 189.511 202.633 189.733C202.68 189.955 202.674 190.186 202.615 190.405C201.31 194.12 201.315 202.595 202.585 206.305Z" fill="white"/>
<path opacity="0.8" d="M202.435 190.885H156.2C153.7 190.885 153.7 205.825 156.2 205.825H202.44C201.37 202.08 201.37 194.635 202.435 190.885Z" fill="white"/>
<path opacity="0.6" d="M153.04 206.315C153.1 206.534 153.107 206.764 153.06 206.986C153.014 207.209 152.915 207.416 152.771 207.592C152.628 207.769 152.445 207.908 152.236 207.999C152.028 208.09 151.802 208.13 151.575 208.115H124.645C121.38 208.115 121.375 188.615 124.645 188.615H151.575C151.802 188.601 152.028 188.641 152.237 188.732C152.445 188.823 152.628 188.962 152.772 189.138C152.916 189.314 153.015 189.521 153.063 189.743C153.11 189.965 153.104 190.196 153.045 190.415C151.77 194.13 151.77 202.6 153.04 206.315Z" fill="#3B2877"/>
<path opacity="0.5" d="M136.91 189.295C136.952 189.224 136.973 189.142 136.971 189.059C136.97 188.977 136.945 188.896 136.901 188.826C136.856 188.757 136.794 188.7 136.719 188.664C136.645 188.628 136.562 188.612 136.48 188.62H131.905C128.645 188.62 128.645 208.12 131.905 208.12H136.5C136.582 208.128 136.665 208.112 136.739 208.076C136.814 208.04 136.876 207.983 136.921 207.914C136.965 207.844 136.99 207.763 136.991 207.681C136.993 207.598 136.972 207.516 136.93 207.445C134.945 204.43 134.945 192.305 136.91 189.295Z" fill="white"/>
<path opacity="0.5" d="M144.05 189.295C144.091 189.223 144.112 189.142 144.11 189.059C144.108 188.976 144.084 188.895 144.04 188.825C143.996 188.756 143.933 188.699 143.859 188.662C143.785 188.625 143.702 188.609 143.62 188.615H139.045C135.785 188.615 135.785 208.115 139.045 208.115H143.62C143.702 208.122 143.784 208.106 143.858 208.069C143.931 208.032 143.993 207.976 144.037 207.906C144.081 207.837 144.105 207.756 144.106 207.674C144.107 207.592 144.086 207.511 144.045 207.44C142.085 204.43 142.085 192.3 144.05 189.295Z" fill="white"/>
<path d="M201.835 161.76C201.746 160.371 201.42 159.008 200.87 157.73L201.32 157.51C201.892 158.842 202.23 160.263 202.32 161.71L201.835 161.76Z" fill="#3B2877"/>
<path d="M198.7 155.565H186.28V156.065H198.7V155.565Z" fill="#3B2877"/>
<path d="M117.755 170.77C117.5 171.45 118.125 172.135 118.97 172.135H198.7C201.395 172.135 201.395 157.315 198.7 157.315H118.97C118.125 157.315 117.5 158.005 117.755 158.685C118.805 161.5 118.805 167.945 117.755 170.77Z" fill="#3B2877"/>
<path opacity="0.2" d="M117.755 170.77C117.5 171.45 118.125 172.135 118.97 172.135H164.97C167.67 172.135 167.67 157.315 164.97 157.315H118.97C118.125 157.315 117.5 158.005 117.755 158.685C118.805 161.5 118.805 167.945 117.755 170.77Z" fill="black"/>
<path opacity="0.8" d="M117.875 159.05H163.635C165.705 159.05 165.705 170.405 163.635 170.405H117.875C118.76 167.555 118.76 161.9 117.875 159.05Z" fill="white"/>
<path opacity="0.2" d="M174.345 160.62C174.145 159.965 174.725 159.33 175.525 159.33H194.055C196.02 159.33 196.02 170.125 194.055 170.125H175.525C174.725 170.125 174.145 169.49 174.345 168.83C175 166.755 175 162.7 174.345 160.62Z" fill="white"/>
<path d="M110.3 49C108.045 51.415 102.54 49 101.7 55.65C100.79 62.82 104.24 66.265 99.7849 68.15C92.7849 71.075 87.7849 82.765 97.5049 87.15C107.225 91.535 127.925 86.94 125.595 78.005C123.265 69.07 123.725 64.275 126.475 60.065C130.1 54.5 129.325 47.35 126.37 44.76C121.77 40.71 115.415 43.5 110.3 49Z" fill="#263238"/>
<path d="M122.33 77.765C122.292 77.7665 122.255 77.7533 122.226 77.7282C122.197 77.7031 122.179 77.668 122.175 77.63C122.171 77.6099 122.172 77.5893 122.177 77.5694C122.181 77.5496 122.19 77.5309 122.202 77.5145C122.214 77.4981 122.23 77.4844 122.248 77.4742C122.265 77.4639 122.285 77.4574 122.305 77.455C124.235 77.19 125.385 76.715 125.925 75.955C126.595 75.01 126.305 73.605 125.925 71.825C125.335 68.93 124.52 64.965 127.12 59.955C130.275 53.88 129.12 47.22 126.165 45.04C126.132 45.016 126.11 44.9799 126.103 44.9397C126.097 44.8994 126.106 44.8582 126.13 44.825C126.155 44.7917 126.192 44.7695 126.233 44.7629C126.274 44.7564 126.316 44.7661 126.35 44.79C129.43 47.045 130.62 53.885 127.395 60.1C124.85 65.01 125.65 68.915 126.23 71.765C126.61 73.615 126.91 75.08 126.16 76.135C125.57 76.97 124.355 77.485 122.335 77.765H122.33Z" fill="#263238"/>
<path d="M97.12 69.105C96.8041 69.1037 96.4886 69.0837 96.175 69.045C96.1546 69.0426 96.1349 69.0361 96.117 69.0259C96.0991 69.0157 96.0834 69.0021 96.0709 68.9858C96.0583 68.9695 96.0491 68.9509 96.0438 68.931C96.0385 68.9111 96.0372 68.8904 96.04 68.87C96.0425 68.8496 96.049 68.8299 96.0592 68.812C96.0693 68.7941 96.0829 68.7784 96.0992 68.7659C96.1155 68.7533 96.1341 68.7441 96.154 68.7388C96.1739 68.7335 96.1946 68.7322 96.215 68.735C97.635 68.91 98.665 68.7 99.36 68.09C100.66 66.945 100.68 64.55 100.695 61.775C100.695 58.635 100.74 55.08 102.775 52.655C102.788 52.6393 102.804 52.6262 102.822 52.6167C102.841 52.6072 102.86 52.6013 102.881 52.5995C102.901 52.5976 102.922 52.5998 102.941 52.6059C102.961 52.612 102.979 52.6219 102.995 52.635C103.011 52.6482 103.024 52.6643 103.033 52.6824C103.043 52.7006 103.049 52.7204 103.051 52.7409C103.052 52.7613 103.05 52.7819 103.044 52.8015C103.038 52.8211 103.028 52.8393 103.015 52.855C101.05 55.195 101.015 58.69 101.015 61.78C101.015 64.625 100.98 67.085 99.575 68.325C98.8823 68.8815 98.0069 69.1596 97.12 69.105Z" fill="#263238"/>
<path d="M146.195 157.305C142.86 157.265 141.55 157.055 140.015 157.08C138.48 157.105 138.115 157.375 136.515 157.305C135.435 157.26 135.43 155.975 135.845 155.095C136.17 154.405 136.57 153.71 136.94 152.85L141.17 153.16C141.74 154.77 144.57 155.46 147.05 156.03C148.035 156.265 147.53 157.32 146.195 157.305Z" fill="#3B2877"/>
<path d="M124.14 95.88C124.14 95.88 135.33 105.505 146.64 115.715C151.42 120.04 141.395 153.015 141.395 153.015C141.185 153.72 137.455 152.715 136.895 152.16C136.895 152.16 136.325 126.565 138.75 121.41C113.67 115.07 109.75 102.755 109.75 102.755L111.55 95.115L124.14 95.88Z" fill="#263238"/>
<path opacity="0.2" d="M111.405 105.79C112.809 107.752 114.472 109.515 116.35 111.03C118.85 108.105 118.15 103.38 118.15 103.38L111.405 105.79Z" fill="black"/>
<path d="M142.265 151.59C142.195 152.09 142.075 152.975 142.01 153.63C142 153.736 141.95 153.834 141.87 153.905C141.79 153.975 141.686 154.013 141.58 154.01C139.907 153.879 138.249 153.591 136.63 153.15C136.552 153.128 136.483 153.082 136.433 153.018C136.384 152.954 136.356 152.876 136.355 152.795L136.32 150.97C136.32 150.911 136.332 150.852 136.356 150.798C136.379 150.743 136.414 150.694 136.458 150.654C136.502 150.614 136.554 150.584 136.61 150.565C136.666 150.546 136.726 150.539 136.785 150.545L141.945 151.17C141.994 151.175 142.041 151.191 142.084 151.215C142.127 151.24 142.165 151.272 142.195 151.312C142.225 151.351 142.246 151.396 142.258 151.444C142.27 151.491 142.273 151.541 142.265 151.59Z" fill="#263238"/>
<path opacity="0.3" d="M142.265 151.59C142.195 152.09 142.075 152.975 142.01 153.63C142 153.736 141.95 153.834 141.87 153.905C141.79 153.975 141.686 154.013 141.58 154.01C139.907 153.879 138.249 153.591 136.63 153.15C136.552 153.128 136.483 153.082 136.433 153.018C136.384 152.954 136.356 152.876 136.355 152.795L136.32 150.97C136.32 150.911 136.332 150.852 136.356 150.798C136.379 150.743 136.414 150.694 136.458 150.654C136.502 150.614 136.554 150.584 136.61 150.565C136.666 150.546 136.726 150.539 136.785 150.545L141.945 151.17C141.994 151.175 142.041 151.191 142.084 151.215C142.127 151.24 142.165 151.272 142.195 151.312C142.225 151.351 142.246 151.396 142.258 151.444C142.27 151.491 142.273 151.541 142.265 151.59Z" fill="white"/>
<path d="M97.235 181.22C93.845 181.22 92.735 179.945 90.84 179.595C89.24 179.295 88.815 179.435 87.525 179.21C86.445 179.02 86.36 178.28 87.025 177.185C87.4588 176.428 87.8268 175.635 88.125 174.815L93.265 175.155C93.8 176.53 95.035 179.325 96.92 179.655C98.695 180 98.585 181.22 97.235 181.22Z" fill="#3B2877"/>
<path d="M123.365 95.85C123.365 95.85 111.54 116.875 106.78 129.88C101.78 143.54 93.82 165.88 93.245 175.155C92.395 175.56 89.605 175.405 88.105 174.815C88.105 174.815 86.715 142.815 96.34 129.995C98.635 102.54 102.445 98.15 106.495 94.805L123.365 95.85Z" fill="#263238"/>
<path d="M93.8649 173.26C93.8036 173.893 93.7869 174.53 93.8149 175.165C93.8218 175.276 93.7847 175.384 93.7116 175.468C93.6386 175.551 93.5355 175.602 93.4249 175.61C91.5099 175.785 88.8399 175.17 87.9949 174.96C87.9164 174.94 87.8465 174.895 87.7959 174.832C87.7453 174.769 87.7169 174.691 87.7149 174.61L87.6499 172.82C87.6491 172.761 87.6605 172.703 87.6834 172.649C87.7063 172.594 87.7402 172.545 87.783 172.505C87.8258 172.465 87.8765 172.434 87.9319 172.414C87.9873 172.394 88.0462 172.386 88.1049 172.39L93.5249 172.855C93.5741 172.859 93.6219 172.872 93.6657 172.895C93.7095 172.917 93.7484 172.948 93.7801 172.986C93.8118 173.024 93.8356 173.067 93.8501 173.114C93.8647 173.162 93.8697 173.211 93.8649 173.26Z" fill="#263238"/>
<path opacity="0.3" d="M93.8649 173.26C93.8036 173.893 93.7869 174.53 93.8149 175.165C93.8218 175.276 93.7847 175.384 93.7116 175.468C93.6386 175.551 93.5355 175.602 93.4249 175.61C91.5099 175.785 88.8399 175.17 87.9949 174.96C87.9164 174.94 87.8465 174.895 87.7959 174.832C87.7453 174.769 87.7169 174.691 87.7149 174.61L87.6499 172.82C87.6491 172.761 87.6605 172.703 87.6834 172.649C87.7063 172.594 87.7402 172.545 87.783 172.505C87.8258 172.465 87.8765 172.434 87.9319 172.414C87.9873 172.394 88.0462 172.386 88.1049 172.39L93.5249 172.855C93.5741 172.859 93.6219 172.872 93.6657 172.895C93.7095 172.917 93.7484 172.948 93.7801 172.986C93.8118 173.024 93.8356 173.067 93.8501 173.114C93.8647 173.162 93.8697 173.211 93.8649 173.26Z" fill="white"/>
<path d="M126.5 75.225C127 76.17 127.54 77.225 128.09 78.225C128.64 79.225 129.195 80.225 129.755 81.2C130.885 83.165 132.065 85.09 133.33 86.905L132.65 86.3C133.152 86.6527 133.705 86.926 134.29 87.11C134.998 87.3474 135.723 87.528 136.46 87.65C137.23 87.79 138.03 87.885 138.845 87.96C139.66 88.035 140.515 88.08 141.295 88.13H141.4C141.725 88.1487 142.033 88.2798 142.271 88.501C142.51 88.7221 142.664 89.0195 142.707 89.3419C142.75 89.6643 142.68 89.9917 142.508 90.2678C142.336 90.5439 142.073 90.7516 141.765 90.855C140.872 91.1523 139.957 91.3829 139.03 91.545C138.098 91.7108 137.156 91.8127 136.21 91.85C135.206 91.8886 134.202 91.8283 133.21 91.67C132.091 91.5014 131.009 91.1429 130.01 90.61C129.802 90.4966 129.618 90.3458 129.465 90.165L129.33 90.005C128.535 89.055 127.76 88.085 127.05 87.09C126.34 86.095 125.645 85.09 125 84.09C124.355 83.09 123.73 82.025 123.14 80.97C122.55 79.915 121.99 78.87 121.455 77.715C121.174 77.0587 121.154 76.3199 121.4 75.6496C121.646 74.9793 122.138 74.4282 122.777 74.109C123.415 73.7897 124.152 73.7264 124.835 73.932C125.519 74.1376 126.098 74.5965 126.455 75.215L126.5 75.225Z" fill="#FFB573"/>
<path d="M123.74 71.19C127.005 72.265 127.535 73.73 129.325 79.14C128.135 82.385 123.325 84.03 123.325 84.03C123.325 84.03 117.645 74.78 123.74 71.19Z" fill="#3B2877"/>
<path d="M128.21 78.23C128.025 80.02 127.565 82.155 126.6 86.35C125.85 89.91 125.84 96.85 124.64 97.215C122.335 98.355 116.565 97.915 106.495 94.805C106.815 89.605 107.42 86.075 105.69 74.145C105.581 73.5196 105.613 72.8777 105.783 72.2662C105.954 71.6547 106.259 71.0888 106.675 70.6099C107.092 70.131 107.61 69.7509 108.192 69.4975C108.774 69.2441 109.406 69.1237 110.04 69.145C110.77 69.145 111.54 69.205 112.325 69.275C115.094 69.4416 117.848 69.8075 120.565 70.37C121.45 70.57 122.365 70.805 123.235 71.045C124.767 71.4826 126.1 72.4377 127.007 73.7478C127.914 75.0578 128.339 76.6418 128.21 78.23Z" fill="#3B2877"/>
<path d="M92.96 98.91L93.96 97.995C94.1461 97.8249 94.2887 97.6126 94.3757 97.3759C94.4627 97.1393 94.4916 96.8852 94.46 96.635L94.185 94.25C94.1324 93.7813 93.9689 93.3318 93.7081 92.9388C93.4472 92.5458 93.0965 92.2205 92.685 91.99L92.185 91.705C90.4 93.11 89.505 95.94 89.505 95.94L89.16 96.72C89.0841 96.8777 89.0404 97.0489 89.0313 97.2236C89.0222 97.3984 89.048 97.5732 89.1071 97.7379C89.1662 97.9026 89.2574 98.0539 89.3755 98.183C89.4936 98.3121 89.6362 98.4165 89.795 98.49L91.33 99.19C91.5998 99.3051 91.8971 99.3398 92.1862 99.2902C92.4753 99.2405 92.744 99.1085 92.96 98.91Z" fill="#FFB573"/>
<path d="M145.445 86.9L144.165 86.4C143.928 86.3105 143.673 86.2792 143.422 86.3088C143.17 86.3384 142.93 86.428 142.72 86.57L140.72 87.91C140.327 88.1741 140.004 88.5285 139.777 88.9435C139.55 89.3586 139.426 89.822 139.415 90.295V90.89C141.48 91.83 144.415 91.32 144.415 91.32L145.265 91.27C145.44 91.2642 145.612 91.2239 145.771 91.1512C145.93 91.0786 146.074 90.9751 146.193 90.8468C146.312 90.7185 146.404 90.5679 146.464 90.4037C146.525 90.2394 146.552 90.0649 146.545 89.89L146.465 88.205C146.442 87.9114 146.333 87.631 146.151 87.399C145.97 87.1669 145.724 86.9934 145.445 86.9Z" fill="#FFB573"/>
<path d="M108.67 75.755L108.03 76.05L107.33 76.37C106.865 76.595 106.405 76.83 105.945 77.07C105.02 77.57 104.12 78.07 103.235 78.595C102.35 79.12 101.495 79.705 100.665 80.3C99.835 80.895 99.065 81.545 98.315 82.21L98.645 81.79C98.4013 82.1486 98.1872 82.5265 98.005 82.92C97.785 83.375 97.58 83.87 97.38 84.375C96.98 85.375 96.59 86.445 96.23 87.52C95.87 88.595 95.505 89.685 95.15 90.775L94.07 94.06C93.9653 94.3827 93.747 94.6564 93.4557 94.8302C93.1644 95.004 92.8199 95.0661 92.4862 95.005C92.1525 94.9439 91.8523 94.7637 91.6415 94.4979C91.4307 94.2321 91.3236 93.8989 91.34 93.56C91.395 92.355 91.505 91.185 91.64 90.005C91.775 88.825 91.945 87.65 92.14 86.47C92.335 85.29 92.59 84.105 92.915 82.905C93.075 82.305 93.25 81.705 93.47 81.075C93.7024 80.3816 94.0004 79.7119 94.36 79.075C94.4231 78.9707 94.495 78.872 94.575 78.78L94.695 78.655C95.5186 77.747 96.4005 76.8935 97.335 76.1C98.256 75.3173 99.2209 74.5878 100.225 73.915C101.216 73.2433 102.242 72.6258 103.3 72.065C103.83 71.785 104.365 71.52 104.91 71.26C105.185 71.135 105.455 71.005 105.74 70.885C106.025 70.765 106.285 70.66 106.64 70.525C107.321 70.2528 108.082 70.2591 108.758 70.5425C109.434 70.826 109.972 71.3638 110.255 72.0402C110.539 72.7165 110.545 73.4771 110.273 74.158C110.001 74.8389 109.472 75.3855 108.8 75.68L108.67 75.755Z" fill="#FFB573"/>
<path d="M113.5 70.445C111.05 68.69 109.56 68.5 103.63 71.075C102.925 74.805 105.235 80.28 105.235 80.28C105.235 80.28 113.125 76.17 113.5 70.445Z" fill="#3B2877"/>
<path d="M114.14 60.055C114.505 62.8 114.74 67.775 112.78 69.315C112.78 69.315 115.34 69.27 120.235 73.275C122.07 71.275 121.02 70.41 121.02 70.41C118.105 69.305 118.31 67.1 118.945 65.085L114.14 60.055Z" fill="#FFB573"/>
<path d="M119.2 72.465C117.415 72.465 116.51 75.06 116.51 75.06C116.51 75.06 112.22 71.64 111.635 69.235C112.205 69.0053 112.762 68.7466 113.305 68.46C113.305 68.46 118.31 71.315 119.2 72.465Z" fill="white"/>
<path d="M120.91 72.4C120.91 72.4 122.26 72.9 122.705 74.9C123.62 71.09 121.835 70.49 121.835 70.49C121.388 70.1546 120.832 69.9978 120.275 70.05C120.64 70.3048 120.904 70.6799 121.02 71.1096C121.136 71.5392 121.097 71.9961 120.91 72.4Z" fill="white"/>
<path opacity="0.2" d="M116.1 62.105L118.94 65.105C118.785 65.574 118.673 66.0559 118.605 66.545C117.485 66.23 116.005 64.775 115.955 63.545C115.914 63.0602 115.963 62.572 116.1 62.105Z" fill="black"/>
<path d="M111.06 56.06C112.06 60.33 112.425 62.155 114.99 64.105C118.845 67.035 123.85 65.135 124.12 60.715C124.36 56.715 122.65 50.415 118.12 49.215C117.16 48.9264 116.14 48.8994 115.167 49.1366C114.193 49.3739 113.3 49.8668 112.58 50.5646C111.861 51.2623 111.34 52.1395 111.073 53.1056C110.806 54.0717 110.801 55.0916 111.06 56.06Z" fill="#FFB573"/>
<path d="M111.895 59.13C113.465 58.36 115.13 54.575 112.895 52.785C114.74 53.13 116.855 52.635 118.81 51.125C121.36 49.125 125.115 54.09 123.88 51.175C122.1 46.975 116.735 45.925 111.88 49.415C107.025 52.905 107.37 57.15 111.895 59.13Z" fill="#263238"/>
<path d="M110.565 58.275C110.548 58.2733 110.532 58.2662 110.519 58.2547C110.507 58.2432 110.498 58.2279 110.495 58.2111C110.491 58.1943 110.493 58.1769 110.501 58.1614C110.508 58.1459 110.52 58.1331 110.535 58.125C111.785 57.585 117.09 56.455 117.315 56.41C117.325 56.407 117.336 56.4063 117.346 56.4077C117.357 56.4092 117.367 56.4129 117.376 56.4186C117.385 56.4243 117.393 56.4318 117.399 56.4407C117.404 56.4495 117.408 56.4595 117.41 56.47C117.413 56.4898 117.409 56.51 117.398 56.5267C117.386 56.5433 117.369 56.5552 117.35 56.56C117.295 56.56 111.85 57.735 110.595 58.27L110.565 58.275Z" fill="white"/>
<path opacity="0.2" d="M117 56.5C116.464 56.2643 115.857 56.25 115.31 56.46C115.865 56.583 116.439 56.5966 117 56.5Z" fill="black"/>
<path opacity="0.2" d="M116.955 56.88C116.695 56.8251 116.426 56.8276 116.167 56.8872C115.908 56.9467 115.665 57.062 115.455 57.225C115.974 57.2167 116.485 57.0992 116.955 56.88Z" fill="black"/>
<path d="M117.93 56.44C118 56.805 118.245 57.075 118.48 57.045C118.715 57.015 118.845 56.7 118.775 56.335C118.705 55.97 118.455 55.705 118.225 55.73C117.995 55.755 117.86 56.08 117.93 56.44Z" fill="#263238"/>
<path d="M122.32 55.965C122.39 56.325 122.64 56.595 122.87 56.57C123.1 56.545 123.235 56.22 123.165 55.86C123.095 55.5 122.85 55.225 122.615 55.255C122.38 55.285 122.25 55.6 122.32 55.965Z" fill="#263238"/>
<path d="M122.5 55.29L123.31 54.93C123.31 54.93 123 55.665 122.5 55.29Z" fill="#263238"/>
<path d="M121.5 56.66C121.933 57.4758 122.467 58.2334 123.09 58.9151C122.92 59.0582 122.719 59.1616 122.504 59.2178C122.289 59.274 122.064 59.2816 121.845 59.2401L121.5 56.66Z" fill="#ED893E"/>
<path d="M119.925 60.855C120.126 60.8721 120.329 60.8721 120.53 60.855C120.544 60.8532 120.557 60.8486 120.569 60.8415C120.581 60.8344 120.591 60.8249 120.599 60.8136C120.607 60.8024 120.612 60.7895 120.615 60.776C120.618 60.7625 120.618 60.7485 120.615 60.735C120.61 60.7063 120.594 60.6805 120.571 60.6628C120.548 60.6452 120.519 60.637 120.49 60.64C120.037 60.6948 119.578 60.6484 119.146 60.5039C118.714 60.3595 118.319 60.1208 117.99 59.805C117.98 59.795 117.969 59.7871 117.956 59.7817C117.943 59.7763 117.929 59.7735 117.915 59.7735C117.901 59.7735 117.887 59.7763 117.874 59.7817C117.861 59.7871 117.85 59.795 117.84 59.805C117.821 59.8254 117.81 59.8522 117.81 59.88C117.81 59.9078 117.821 59.9346 117.84 59.955C118.402 60.4986 119.144 60.8186 119.925 60.855Z" fill="#263238"/>
<path d="M110.045 59.885C110.286 60.2288 110.596 60.5188 110.955 60.7365C111.313 60.9543 111.714 61.0951 112.13 61.15C113.17 61.235 113.395 60.025 112.865 58.95C112.39 57.985 111.275 56.77 110.365 57.19C109.455 57.61 109.37 59 110.045 59.885Z" fill="#FFB573"/>
<path d="M116.525 53.685C116.553 53.685 116.58 53.6787 116.605 53.6666C116.63 53.6545 116.653 53.6368 116.67 53.615C116.831 53.409 117.04 53.246 117.279 53.1405C117.518 53.0349 117.779 52.9901 118.04 53.01C118.067 53.0142 118.095 53.0128 118.121 53.0059C118.148 52.999 118.172 52.9867 118.194 52.9699C118.215 52.953 118.233 52.9319 118.246 52.9078C118.259 52.8837 118.267 52.8573 118.27 52.83C118.272 52.7726 118.254 52.7163 118.218 52.6713C118.182 52.6263 118.131 52.5957 118.075 52.585C117.746 52.5558 117.415 52.6086 117.111 52.7386C116.808 52.8686 116.541 53.0718 116.335 53.33C116.311 53.3641 116.297 53.4043 116.294 53.446C116.291 53.4877 116.3 53.5294 116.32 53.5662C116.34 53.6031 116.369 53.6338 116.406 53.6547C116.442 53.6757 116.483 53.6862 116.525 53.685Z" fill="#263238"/>
<path d="M123.13 53.5C123.157 53.503 123.184 53.5005 123.21 53.4928C123.235 53.4851 123.259 53.4722 123.28 53.455C123.3 53.4355 123.316 53.4121 123.327 53.3864C123.337 53.3606 123.343 53.333 123.343 53.305C123.343 53.2771 123.337 53.2494 123.327 53.2237C123.316 53.1979 123.3 53.1746 123.28 53.155C123.064 52.8837 122.788 52.6658 122.474 52.5184C122.16 52.371 121.817 52.298 121.47 52.305C121.442 52.3073 121.415 52.3154 121.391 52.3288C121.367 52.3422 121.346 52.3607 121.329 52.3829C121.313 52.4052 121.301 52.4307 121.295 52.4578C121.289 52.4849 121.289 52.5129 121.295 52.54C121.304 52.5965 121.333 52.6478 121.377 52.6839C121.422 52.7199 121.478 52.7382 121.535 52.735C121.81 52.7321 122.082 52.7923 122.33 52.9111C122.578 53.0298 122.795 53.204 122.965 53.42C122.985 53.4447 123.01 53.4647 123.038 53.4785C123.067 53.4923 123.098 53.4997 123.13 53.5Z" fill="#263238"/>
<path d="M119.285 58.705C118.23 58.705 117.315 57.585 117.215 56.15C117.154 55.4741 117.31 54.7965 117.66 54.215C117.798 53.9685 117.993 53.7586 118.229 53.6029C118.464 53.4472 118.734 53.3502 119.015 53.32C120.12 53.245 121.09 54.39 121.195 55.875C121.3 57.36 120.485 58.625 119.39 58.7L119.285 58.705ZM119.12 53.5H119.03C118.773 53.5295 118.526 53.6197 118.311 53.7631C118.095 53.9065 117.917 54.0991 117.79 54.325C117.458 54.8781 117.311 55.5226 117.37 56.165C117.465 57.56 118.37 58.635 119.37 58.57C120.37 58.505 121.125 57.305 121.03 55.91C120.935 54.515 120.095 53.5 119.12 53.5Z" fill="white"/>
<path d="M123.96 58.435C122.905 58.435 121.985 57.32 121.885 55.885C121.827 55.2093 121.982 54.5324 122.33 53.95C122.469 53.7034 122.665 53.4936 122.902 53.3379C123.138 53.1823 123.408 53.0853 123.69 53.055C124.785 52.98 125.765 54.125 125.865 55.605C125.923 56.2807 125.767 56.9576 125.42 57.54C125.281 57.7872 125.086 57.9974 124.849 58.1532C124.612 58.3089 124.342 58.4056 124.06 58.435H123.96ZM123.795 53.21H123.7C123.443 53.2395 123.196 53.3297 122.981 53.4731C122.765 53.6166 122.587 53.8091 122.46 54.035C122.132 54.5899 121.986 55.233 122.04 55.875C122.135 57.225 122.985 58.28 123.96 58.28H124.05C124.308 58.2517 124.555 58.162 124.77 58.0185C124.986 57.8749 125.164 57.6817 125.29 57.455C125.619 56.9027 125.766 56.2606 125.71 55.62C125.615 54.265 124.765 53.21 123.795 53.21Z" fill="white"/>
<path d="M122 56.09C121.987 56.0893 121.974 56.0852 121.962 56.0782C121.951 56.0713 121.942 56.0615 121.935 56.05C121.745 55.75 121.19 56.075 121.185 56.075C121.176 56.0804 121.167 56.0841 121.157 56.0858C121.147 56.0875 121.137 56.0871 121.127 56.0848C121.117 56.0825 121.108 56.0782 121.1 56.0722C121.092 56.0662 121.085 56.0587 121.08 56.05C121.067 56.0354 121.06 56.0168 121.06 55.9975C121.06 55.9782 121.067 55.9596 121.08 55.945C121.11 55.945 121.77 55.535 122.04 55.945C122.046 55.9532 122.05 55.9627 122.053 55.9728C122.055 55.9829 122.055 55.9933 122.052 56.0034C122.05 56.0134 122.045 56.0228 122.039 56.0309C122.032 56.0389 122.024 56.0454 122.015 56.05C122.015 56.0573 122.014 56.0646 122.011 56.0715C122.009 56.0784 122.005 56.0847 122 56.09Z" fill="white"/>
<path d="M118.125 55.765L118.93 55.41C118.93 55.41 118.625 56.145 118.125 55.765Z" fill="#263238"/>
</g>
<defs>
<clipPath id="clip0_18_13">
<rect width="250" height="250" fill="white"/>
</clipPath>
</defs>
</svg>
